<svg width="139" height="139" viewBox="0 0 139 139" fill="none" xmlns="http://www.w3.org/2000/svg">
<path d="M69.5 139C107.884 139 139 107.884 139 69.5C139 31.1162 107.884 0 69.5 0C31.1162 0 0 31.1162 0 69.5C0 107.884 31.1162 139 69.5 139Z" fill="black"/>
<path d="M90.4 95.245L89.795 122.63V123.415C55.425 93.67 49.57 86.415 48.555 84.21L48.52 84.135C48.3978 83.72 48.3688 83.2825 48.435 82.855C48.4593 82.6965 48.4926 82.5395 48.535 82.385C48.57 82.26 48.605 82.14 48.65 82.01C49.0205 81.037 49.5456 80.1305 50.205 79.325C50.6775 78.7145 51.192 78.1385 51.745 77.6C52.9275 76.4305 54.1945 75.3495 55.535 74.365C56.2 73.865 56.895 73.365 57.63 72.865C59.05 71.895 60.585 70.925 62.175 69.98C74.525 81.5 90.2 95.06 90.4 95.245Z" fill="url(#paint0_linear_1582_731)"/>
<path d="M90.855 28.43L90.225 56.605C89.98 56.705 74.305 62.785 62.225 69.97C60.635 70.915 59.105 71.885 57.68 72.855C56.95 73.355 56.25 73.855 55.585 74.355C54.2465 75.342 52.98 76.423 51.795 77.59C51.2435 78.1295 50.729 78.706 50.255 79.315C49.1651 80.705 48.5101 82.07 48.4151 83.355L48.545 77.48V77.44L48.57 76.53V76.2L48.675 72.495L48.9701 61.56L49.17 54.28C51.655 44.09 86.75 30.045 90.855 28.43Z" fill="white"/>
<path d="M58.5 36.22C64.197 36.22 68.815 31.6018 68.815 25.905C68.815 20.2082 64.197 15.59 58.5 15.59C52.803 15.59 48.1851 20.2082 48.1851 25.905C48.1851 31.6018 52.803 36.22 58.5 36.22Z" fill="white"/>
<defs>
<linearGradient id="paint0_linear_1582_731" x1="83.295" y1="105.915" x2="42.53" y2="58.89" gradientUnits="userSpaceOnUse">
<stop stop-color="white"/>
<stop offset="1"/>
</linearGradient>
</defs>
</svg>
