<?xml version="1.0" encoding="UTF-8"?>
<svg version="1.1" xmlns="http://www.w3.org/2000/svg" width="476" height="525">
<path d="M0 0 C1.01175293 0.20931152 2.02350586 0.41862305 3.06591797 0.63427734 C15.09258056 3.19318026 26.89403009 5.97784143 38.10546875 11.12988281 C40.23685265 12.10878129 42.38404412 13.04852815 44.53125 13.9921875 C55.03566971 18.7017277 64.67136937 24.24027629 74.1640625 30.74267578 C75.85997916 31.90410807 77.57003542 33.04482119 79.28125 34.18359375 C84.34035919 37.60133465 84.34035919 37.60133465 86 39 C86 39.66 86 40.32 86 41 C86.54140625 41.2371875 87.0828125 41.474375 87.640625 41.71875 C90.63250137 43.34347757 93.11159399 45.3501877 95.75 47.5 C96.73484375 48.2940625 97.7196875 49.088125 98.734375 49.90625 C99.48203125 50.5971875 100.2296875 51.288125 101 52 C101 52.66 101 53.32 101 54 C101.66 54 102.32 54 103 54 C104.4453125 55.43359375 104.4453125 55.43359375 106.125 57.4375 C109.49378571 61.41621323 112.9703982 65.2770561 116.49609375 69.1171875 C118 71 118 71 118 73 C118.66 73 119.32 73 120 73 C121.2890625 74.4609375 121.2890625 74.4609375 122.625 76.375 C123.07101562 77.00148438 123.51703125 77.62796875 123.9765625 78.2734375 C125 80 125 80 125 82 C125.66 82 126.32 82 127 82 C128.77808365 84.52821268 130.40631243 87.0447717 132 89.6875 C132.48694336 90.49405029 132.97388672 91.30060059 133.47558594 92.1315918 C151.19119463 122.05033094 160.13833919 154.34067095 162 189 C162.03996094 189.68755371 162.07992188 190.37510742 162.12109375 191.08349609 C164.33463315 234.78983157 148.42129505 278.39360393 123.0625 313.4375 C122.58965576 314.09500244 122.11681152 314.75250488 121.62963867 315.42993164 C120.47216474 316.99347777 119.24225283 318.50292608 118 320 C117.34 320 116.68 320 116 320 C115.71125 320.598125 115.4225 321.19625 115.125 321.8125 C114 324 114 324 112 327 C111.34 327 110.68 327 110 327 C109.77699219 327.54914063 109.55398438 328.09828125 109.32421875 328.6640625 C105.1100361 336.09793042 96.66950157 342.74954132 90 348 C89.34 348 88.68 348 88 348 C88 348.66 88 349.32 88 350 C86.5390625 351.2890625 86.5390625 351.2890625 84.625 352.625 C83.99851562 353.07101562 83.37203125 353.51703125 82.7265625 353.9765625 C81 355 81 355 79 355 C79 355.66 79 356.32 79 357 C77.13607045 358.30775702 75.20468431 359.51973672 73.25 360.6875 C72.35873413 361.22032593 72.35873413 361.22032593 71.44946289 361.76391602 C70.22020083 362.49728909 68.98914045 363.22765582 67.75634766 363.95507812 C66.21493452 364.87212681 64.68998289 365.81672791 63.16796875 366.765625 C56.98598461 370.55087423 50.59102263 373.69292195 44 376.6875 C43.19361084 377.05609131 42.38722168 377.42468262 41.55639648 377.80444336 C31.08866615 382.46389196 20.3432089 385.5893067 9.1875 388.125 C8.12724609 388.37636719 7.06699219 388.62773437 5.97460938 388.88671875 C-8.07584709 392.11806997 -21.82291968 393.38042736 -36.1875 393.3125 C-36.95147095 393.31134186 -37.71544189 393.31018372 -38.50256348 393.30899048 C-49.84177796 393.27510011 -60.82984901 392.69051846 -71.96972656 390.41015625 C-73.93791699 390.01254202 -75.91834484 389.67707221 -77.8984375 389.34375 C-105.21343217 384.53356226 -132.05591394 371.80143998 -154 355 C-155.1114018 354.18752696 -156.22477388 353.37774398 -157.33984375 352.5703125 C-158.45585743 351.75538396 -159.57174542 350.94028325 -160.6875 350.125 C-161.70199219 349.38507813 -162.71648437 348.64515625 -163.76171875 347.8828125 C-164.50035156 347.26148438 -165.23898438 346.64015625 -166 346 C-166 345.34 -166 344.68 -166 344 C-166.58322021 343.74057617 -167.16644043 343.48115234 -167.76733398 343.21386719 C-171.82972649 341.00520502 -174.82717728 337.50947222 -178.0625 334.25 C-178.81966309 333.48864746 -179.57682617 332.72729492 -180.35693359 331.94287109 C-210.96372378 300.72407532 -229.80444265 258.33321921 -234 215 C-234.13019531 213.70578125 -234.26039063 212.4115625 -234.39453125 211.078125 C-238.19968703 166.22802221 -226.46440251 124.99659657 -203 87 C-202.45988281 86.03449219 -201.91976562 85.06898438 -201.36328125 84.07421875 C-200.68845703 83.04748047 -200.68845703 83.04748047 -200 82 C-199.34 82 -198.68 82 -198 82 C-197.79375 81.34 -197.5875 80.68 -197.375 80 C-195.50875748 75.92819814 -193.02438473 72.31203002 -190 69 C-189.34 69 -188.68 69 -188 69 C-187.773125 68.45859375 -187.54625 67.9171875 -187.3125 67.359375 C-185.58704892 64.25767128 -183.38706787 61.87299899 -181 59.25 C-180.54882812 58.74339844 -180.09765625 58.23679688 -179.6328125 57.71484375 C-178.46639188 56.43454183 -177.23716029 55.21208271 -176 54 C-175.34 54 -174.68 54 -174 54 C-174 53.34 -174 52.68 -174 52 C-173.34 52 -172.68 52 -172 52 C-172 51.34 -172 50.68 -172 50 C-170.26608049 48.39365985 -168.461909 46.8624713 -166.625 45.375 C-165.62726563 44.55773437 -164.62953125 43.74046875 -163.6015625 42.8984375 C-161 41 -161 41 -159 41 C-159 40.34 -159 39.68 -159 39 C-131.76020614 15.32429132 -96.03685071 3.42311435 -61 -2 C-59.783125 -2.19464844 -58.56625 -2.38929687 -57.3125 -2.58984375 C-38.65830762 -4.78679429 -18.3431033 -3.80312554 0 0 Z M-135.14453125 86.28515625 C-137 88 -137 88 -139 89 C-139 89.66 -139 90.32 -139 91 C-139.66 91 -140.32 91 -141 91 C-141 91.66 -141 92.32 -141 93 C-141.66 93 -142.32 93 -143 93 C-143 93.66 -143 94.32 -143 95 C-143.99 95.33 -144.98 95.66 -146 96 C-147.8085252 98.02495526 -149.47638354 100.03843622 -151.125 102.1875 C-151.61073486 102.8168042 -152.09646973 103.4461084 -152.59692383 104.09448242 C-166.21962346 121.98109817 -181.53455448 146.59804411 -180 170 C-178.41058817 178.66156537 -174.4821601 186.31743965 -167.61328125 191.9609375 C-163.64204576 194.92979614 -163.64204576 194.92979614 -159 196 C-159 196.66 -159 197.32 -159 198 C-158.38125 198.556875 -157.7625 199.11375 -157.125 199.6875 C-152.90307538 204.28194738 -152.69346262 210.62785053 -152.0625 216.625 C-149.33053767 240.12586841 -139.82211248 258.78913417 -125 277 C-124.48566406 277.65226563 -123.97132813 278.30453125 -123.44140625 278.9765625 C-122.34012753 280.35561181 -121.17677332 281.68478277 -120 283 C-119.34 283 -118.68 283 -118 283 C-118 283.66 -118 284.32 -118 285 C-114.94441577 288.02517909 -114.94441577 288.02517909 -111 289 C-111 289.66 -111 290.32 -111 291 C-109.03938368 292.47046224 -107.09085306 293.72816283 -105 295 C-104.16082031 295.52980469 -103.32164062 296.05960938 -102.45703125 296.60546875 C-94.60493827 301.40573612 -86.62793771 304.86256811 -78 308 C-77.29351318 308.25765137 -76.58702637 308.51530273 -75.85913086 308.78076172 C-70.59983592 310.62650885 -65.44647266 311.81063013 -59.9375 312.625 C-59.11241943 312.74834717 -58.28733887 312.87169434 -57.43725586 312.9987793 C-24.52174505 317.72450847 8.62018545 311.47808712 36 291.875 C62.67865915 271.03119911 76.12121496 242.9592694 80.44384766 209.68994141 C81.3327222 203.57960067 82.45062191 200.26177372 87 196 C89.68359375 194.1640625 89.68359375 194.1640625 92.4375 192.625 C99.90074167 188.0044197 103.57028194 183.48306735 106 175 C110.53896928 151.62971175 96.3466608 128.70300353 84.375 109.73828125 C83.92125 109.16464844 83.4675 108.59101563 83 108 C82.34 108 81.68 108 81 108 C80.814375 107.34 80.62875 106.68 80.4375 106 C78.39191226 101.73094732 75.42815357 98.25836294 72 95 C71.34 95 70.68 95 70 95 C70 94.34 70 93.68 70 93 C69.34 93 68.68 93 68 93 C68 92.34 68 91.68 68 91 C67.34 91 66.68 91 66 91 C66 90.34 66 89.68 66 89 C55.24840079 78.97626534 41.18073828 67.39439855 27.05859375 62.734375 C24.62918275 61.86771605 22.38119931 60.75471215 20.0625 59.625 C-29.6480174 36.70831301 -95.71663595 48.70647547 -135.14453125 86.28515625 Z " fill="#F26523" transform="translate(278,67)"/>
<path d="M0 0 C0.87958788 3.22600913 1.02527812 5.72000901 0.6875 9.0625 C0.56955078 10.34833984 0.56955078 10.34833984 0.44921875 11.66015625 C0 14 0 14 -2 17 C-3.65145705 22.68835207 -3.34451251 28.90319348 -3.51757812 34.78320312 C-3.55173828 35.65009766 -3.58589844 36.51699219 -3.62109375 37.41015625 C-3.6461499 38.19527588 -3.67120605 38.98039551 -3.69702148 39.78930664 C-4 42 -4 42 -5.00488281 43.97998047 C-6.97730914 47.98387042 -6.33428871 52.68330523 -6.3125 57.0625 C-6.31048584 58.14982422 -6.30847168 59.23714844 -6.30639648 60.35742188 C-7.17978076 80.81644385 -7.17978076 80.81644385 -2 99 C-1.76472227 101.34987262 -1.58613583 103.70556039 -1.4375 106.0625 C-1.35371094 107.35285156 -1.26992188 108.64320313 -1.18359375 109.97265625 C-1.12300781 110.97167969 -1.06242187 111.97070312 -1 113 C-16.76275271 89.35587094 -9.77921461 42.10365075 -4.58496094 15.83496094 C-3.44517311 10.41011908 -1.8545717 5.22165481 0 0 Z " fill="#F49E71" transform="translate(52,202)"/>
<path d="M0 0 C1.29357422 -0.00386719 2.58714844 -0.00773437 3.91992188 -0.01171875 C11.3579544 -0.00418657 18.67090828 0.28074118 26.0625 1.125 C26.0625 1.785 26.0625 2.445 26.0625 3.125 C22.48356021 4.31797993 19.60181797 4.25458359 15.82421875 4.2578125 C15.1070015 4.25876923 14.38978424 4.25972595 13.65083313 4.26071167 C12.12684034 4.26139248 10.60284465 4.25954508 9.07885742 4.25537109 C6.79664172 4.25010757 4.51463074 4.25527393 2.23242188 4.26171875 C-6.87237299 4.26543605 -15.86214775 3.92205504 -24.9375 3.125 C-24.9375 2.465 -24.9375 1.805 -24.9375 1.125 C-16.62128993 0.05264981 -8.37592625 -0.0249655 0 0 Z " fill="#EE5F18" transform="translate(240.9375,453.875)"/>
<path d="M0 0 C-21.84869825 11.91747177 -60.52753589 7.74364981 -84 3 C-85.99884652 2.65981811 -87.99840986 2.32364801 -90 2 C-90 1.67 -90 1.34 -90 1 C-82.70487797 0.87422203 -82.70487797 0.87422203 -79.359375 1.47119141 C-75.54904067 2.07098677 -71.76105488 2.35270715 -67.9140625 2.55859375 C-67.1355191 2.60084579 -66.35697571 2.64309784 -65.55484009 2.68663025 C-56.16327907 3.15036573 -46.77524483 3.10920163 -37.375 3.0625 C-35.57812627 3.05746538 -33.78125115 3.052906 -31.984375 3.04882812 C-27.65621437 3.03799995 -23.32812348 3.02084838 -19 3 C-19 2.34 -19 1.68 -19 1 C-16.77100213 0.83109082 -14.54179338 0.66496313 -12.3125 0.5 C-10.45044922 0.36078125 -10.45044922 0.36078125 -8.55078125 0.21875 C-5.68500671 0.04220063 -2.86900043 -0.04388528 0 0 Z " fill="#F19063" transform="translate(288,454)"/>
<path d="M0 0 C0.99 0.495 0.99 0.495 2 1 C2.59765625 3.21484375 2.59765625 3.21484375 3.0625 5.9375 C3.66805467 9.58772209 3.66805467 9.58772209 5 13 C5.11150479 16.03892708 5.16412607 19.05424414 5.16796875 22.09375 C5.17129715 22.9962146 5.17462555 23.8986792 5.17805481 24.82849121 C5.18312194 26.73835744 5.1854632 28.64823253 5.18530273 30.55810547 C5.18749111 33.48810301 5.20565418 36.41772528 5.22460938 39.34765625 C5.22754289 41.20051954 5.22952797 43.05338463 5.23046875 44.90625 C5.23765427 45.78647827 5.24483978 46.66670654 5.25224304 47.5736084 C5.22882548 53.77117452 5.22882548 53.77117452 3 56 C1.87752646 53.75505292 1.85352219 52.49158588 1.81054688 50.00024414 C1.79382935 49.17500748 1.77711182 48.34977081 1.7598877 47.49952698 C1.74631226 46.60378464 1.73273682 45.7080423 1.71875 44.78515625 C1.70034058 43.85964462 1.68193115 42.934133 1.66296387 41.98057556 C1.60411823 39.00794955 1.55144103 36.03526276 1.5 33.0625 C1.32961542 16.49844612 1.32961542 16.49844612 0 0 Z " fill="#E95D16" transform="translate(433,229)"/>
<path d="M0 0 C2.39778552 0.03102047 4.79490484 0.04097957 7.19287109 0.046875 C17.21522364 0.09781257 27.17023136 0.54251207 37.16552734 1.28125 C37.16552734 1.61125 37.16552734 1.94125 37.16552734 2.28125 C35.23688843 2.31883423 35.23688843 2.31883423 33.26928711 2.35717773 C28.46646373 2.4518573 23.66376473 2.55192641 18.86108398 2.65356445 C16.78852259 2.69668562 14.71593087 2.73837514 12.64331055 2.77856445 C9.65192554 2.83682418 6.66069001 2.90035351 3.66943359 2.96484375 C2.29544151 2.98991249 2.29544151 2.98991249 0.89369202 3.01548767 C-8.59771194 2.58970261 -8.59771194 2.58970261 -16.83447266 5.28125 C-18.52056232 5.35330511 -20.20947925 5.36511068 -21.89697266 5.34375 C-22.81607422 5.33472656 -23.73517578 5.32570313 -24.68212891 5.31640625 C-25.39240234 5.30480469 -26.10267578 5.29320313 -26.83447266 5.28125 C-27.16447266 4.62125 -27.49447266 3.96125 -27.83447266 3.28125 C-18.47581871 0.22620935 -9.72534615 -0.12617518 0 0 Z " fill="#EA601B" transform="translate(230.83447265625,66.71875)"/>
<path d="M0 0 C-13.33035626 5.43237075 -13.33035626 5.43237075 -20 6 C-22.2875976 6.27640014 -22.2875976 6.27640014 -24 7 C-24.33 7.99 -24.66 8.98 -25 10 C-25.804375 10.12375 -26.60875 10.2475 -27.4375 10.375 C-28.283125 10.58125 -29.12875 10.7875 -30 11 C-30.33 11.66 -30.66 12.32 -31 13 C-31.99 13 -32.98 13 -34 13 C-33.67 13.99 -33.34 14.98 -33 16 C-35.31 15.67 -37.62 15.34 -40 15 C-40 15.66 -40 16.32 -40 17 C-40.58007812 17.18175781 -41.16015625 17.36351563 -41.7578125 17.55078125 C-45.49017868 18.75179017 -48.93229048 19.9655297 -52.4375 21.75 C-53.283125 22.1625 -54.12875 22.575 -55 23 C-55.66 22.67 -56.32 22.34 -57 22 C-42.5358805 13.45485677 -27.6419015 5.72933748 -11.5 0.875 C-10.80011963 0.66262695 -10.10023926 0.45025391 -9.37915039 0.23144531 C-5.95663898 -0.72572283 -3.36937839 -1.35806578 0 0 Z " fill="#F2986E" transform="translate(195,71)"/>
<path d="M0 0 C2.09314816 -0.00217082 4.18575431 -0.02033264 6.27880859 -0.03930664 C15.20485048 -0.07521918 23.67742213 0.6576524 32.49365234 2.18530273 C32.49365234 2.51530273 32.49365234 2.84530273 32.49365234 3.18530273 C30.7737207 3.16959229 30.7737207 3.16959229 29.01904297 3.15356445 C-4.14691281 1.30425446 -4.14691281 1.30425446 -36.50634766 6.18530273 C-38.83934591 6.22484508 -41.17342954 6.22932006 -43.50634766 6.18530273 C-43.50634766 5.85530273 -43.50634766 5.52530273 -43.50634766 5.18530273 C-40.00703179 4.53572643 -36.50678054 3.89133015 -33.00634766 3.24780273 C-32.02408203 3.06540039 -31.04181641 2.88299805 -30.02978516 2.69506836 C-19.90517581 0.83888998 -10.2936666 -0.00119002 0 0 Z " fill="#FABFA4" transform="translate(238.50634765625,63.814697265625)"/>
<path d="M0 0 C0.33 0 0.66 0 1 0 C3.29968086 23.98238612 4.90107826 61.14838261 -9 82 C-9.30829203 77.06732759 -8.69762719 73.93335324 -6.796875 69.2890625 C-4.01585025 61.30043259 -3.62693402 52.381118 -3 44 C-2.34 44 -1.68 44 -1 44 C-0.67 29.48 -0.34 14.96 0 0 Z " fill="#F4A87E" transform="translate(438,243)"/>
<path d="M0 0 C1.15628906 0.74056641 1.15628906 0.74056641 2.3359375 1.49609375 C3.33882813 2.13675781 4.34171875 2.77742188 5.375 3.4375 C6.37273437 4.07558594 7.37046875 4.71367187 8.3984375 5.37109375 C10.85830521 6.96899211 10.85830521 6.96899211 13 8 C13 8.66 13 9.32 13 10 C13.99 10.33 14.98 10.66 16 11 C19.18950641 15.93279056 19.79059672 20.8689735 20.5 26.5625 C21.45697338 33.58414803 22.62748616 40.39567061 24.3515625 47.2734375 C25.03980508 50.16737316 25.54064026 53.06183109 26 56 C25.34 55.34 24.68 54.68 24 54 C24 53.01 24 52.02 24 51 C23.34 51 22.68 51 22 51 C21.79503906 49.86820312 21.59007813 48.73640625 21.37890625 47.5703125 C21.10693028 46.08851239 20.83478613 44.60674315 20.5625 43.125 C20.42779297 42.37863281 20.29308594 41.63226563 20.15429688 40.86328125 C19.45463389 36.81466622 19.45463389 36.81466622 18 33 C17.7677354 30.28737884 17.58063765 27.59226874 17.4375 24.875 C17.39431641 24.12089844 17.35113281 23.36679687 17.30664062 22.58984375 C17.2005168 20.72678112 17.09974999 18.86341476 17 17 C16.34 17 15.68 17 15 17 C15 15.35 15 13.7 15 12 C13.68 11.67 12.36 11.34 11 11 C10.67 11.66 10.34 12.32 10 13 C10 11.35 10 9.7 10 8 C9.46375 7.7525 8.9275 7.505 8.375 7.25 C5.4176018 5.69347463 2.70275949 3.96564327 0 2 C0 1.34 0 0.68 0 0 Z " fill="#F5A67F" transform="translate(106,255)"/>
<path d="M0 0 C0.7842334 0.06582275 1.5684668 0.13164551 2.37646484 0.19946289 C17.35686229 1.42680692 32.01432767 2.48452443 47 1 C47 1.66 47 2.32 47 3 C42.01902887 4.66032371 36.83137684 4.18592612 31.61547852 4.18530273 C29.60103276 4.18745876 27.58662542 4.20587573 25.57226562 4.22460938 C17.64327724 4.23639093 9.69623065 4.12016235 2 2 C1.34 1.34 0.68 0.68 0 0 Z " fill="#F8AD8B" transform="translate(215,379)"/>
<path d="M0 0 C2 2 2 2 2.22705078 4.79736328 C2.21657715 5.95993652 2.20610352 7.12250977 2.1953125 8.3203125 C2.18886719 9.57714844 2.18242188 10.83398438 2.17578125 12.12890625 C2.15902344 13.44761719 2.14226563 14.76632812 2.125 16.125 C2.11496983 17.46483721 2.10584404 18.80468152 2.09765625 20.14453125 C2.07402075 23.42986573 2.04107234 26.71484465 2 30 C1.34 30.33 0.68 30.66 0 31 C-0.8543328 27.29930519 -1.12859476 23.87288359 -1.1328125 20.078125 C-1.13410156 18.97082031 -1.13539062 17.86351562 -1.13671875 16.72265625 C-1.13285156 15.57667969 -1.12898438 14.43070312 -1.125 13.25 C-1.12886719 12.08855469 -1.13273437 10.92710937 -1.13671875 9.73046875 C-1.13542969 8.62832031 -1.13414063 7.52617187 -1.1328125 6.390625 C-1.13168457 5.38032227 -1.13055664 4.37001953 -1.12939453 3.32910156 C-1 1 -1 1 0 0 Z " fill="#EB5C15" transform="translate(46,247)"/>
<path d="M0 0 C1.04924652 -0.00135956 1.04924652 -0.00135956 2.11968994 -0.00274658 C9.26442668 -0.00170029 16.30547519 0.0516509 23.375 1.1875 C23.375 1.5175 23.375 1.8475 23.375 2.1875 C22.38918945 2.17178955 21.40337891 2.1560791 20.38769531 2.13989258 C2.43212651 1.87864158 -14.92904964 1.75846544 -32.625 5.1875 C-35.28856202 5.561743 -37.95269985 5.87892723 -40.625 6.1875 C-40.00625 5.89875 -39.3875 5.61 -38.75 5.3125 C-36.49174235 4.25029958 -36.49174235 4.25029958 -34.625 2.1875 C-32.22076718 1.68167439 -29.93511675 1.32866138 -27.5 1.0625 C-26.36038818 0.93621216 -26.36038818 0.93621216 -25.19775391 0.80737305 C-16.81309192 0.01240077 -8.41415173 -0.00071677 0 0 Z " fill="#FDC6AD" transform="translate(240.625,114.8125)"/>
<path d="M0 0 C2.62231964 2.62231964 3.79527148 5.64773 5.25 9 C5.55357422 9.69899414 5.85714844 10.39798828 6.16992188 11.11816406 C8.49546675 16.58875456 10.57422783 22.12683731 12.5 27.75 C12.7671582 28.51183594 13.03431641 29.27367187 13.30957031 30.05859375 C14.55450209 33.81191985 15.19854452 36.22688161 14 40 C13.67 38.35 13.34 36.7 13 35 C12.01 35 11.02 35 10 35 C9.9484375 34.27039063 9.896875 33.54078125 9.84375 32.7890625 C8.92882438 24.36758802 6.40704489 17.68416815 2.74414062 10.09423828 C2.21723633 8.99378174 2.21723633 8.99378174 1.6796875 7.87109375 C1.35726074 7.22068115 1.03483398 6.57026855 0.70263672 5.90014648 C0 4 0 4 0 0 Z " fill="#F4A57D" transform="translate(418,173)"/>
<path d="M0 0 C0 3 0 3 -1.9375 5 C-2.618125 5.66 -3.29875 6.32 -4 7 C-4.33 7.99 -4.66 8.98 -5 10 C-5.66 10 -6.32 10 -7 10 C-7.66 12.31 -8.32 14.62 -9 17 C-10.32 17.33 -11.64 17.66 -13 18 C-13 19.32 -13 20.64 -13 22 C-15.31 22.99 -17.62 23.98 -20 25 C-18.63312778 21.01328937 -16.84804907 18.11505367 -14 15 C-13.34 15 -12.68 15 -12 15 C-11.66355469 14.18789062 -11.66355469 14.18789062 -11.3203125 13.359375 C-9.58851134 10.26467706 -7.28380732 7.82074395 -4.875 5.25 C-4.40707031 4.74339844 -3.93914062 4.23679687 -3.45703125 3.71484375 C-2.30873459 2.47280859 -1.15491328 1.23588506 0 0 Z " fill="#F28D5C" transform="translate(102,121)"/>
<path d="M0 0 C2.31 0.33 4.62 0.66 7 1 C7.33 1.99 7.66 2.98 8 4 C9.65 4.33 11.3 4.66 13 5 C13.33 5.99 13.66 6.98 14 8 C15.93618425 8.67156616 15.93618425 8.67156616 18 9 C18.66 9.33 19.32 9.66 20 10 C20 11.32 20 12.64 20 14 C20.66 14 21.32 14 22 14 C21.67 14.66 21.34 15.32 21 16 C19.2925002 14.71937515 17.62626404 13.38232443 16 12 C16 11.34 16 10.68 16 10 C15.28972656 9.82984375 14.57945312 9.6596875 13.84765625 9.484375 C12.92855469 9.24203125 12.00945312 8.9996875 11.0625 8.75 C10.14597656 8.51796875 9.22945313 8.2859375 8.28515625 8.046875 C6 7 6 7 5.18359375 4.890625 C5.12300781 4.26671875 5.06242187 3.6428125 5 3 C3.35 2.67 1.7 2.34 0 2 C0 1.34 0 0.68 0 0 Z " fill="#EF5E18" transform="translate(340,95)"/>
<path d="M0 0 C5.35554674 -0.43897924 5.35554674 -0.43897924 8 0 C9.5625 2.375 9.5625 2.375 11 5 C12.175625 5.28875 13.35125 5.5775 14.5625 5.875 C15.696875 6.24625 16.83125 6.6175 18 7 C19.4375 10.625 19.4375 10.625 20 14 C15.61074062 11.90235367 11.74546466 9.19408825 7.75 6.4375 C7.00492187 5.93025391 6.25984375 5.42300781 5.4921875 4.90039062 C4.78835938 4.41634766 4.08453125 3.93230469 3.359375 3.43359375 C2.71452148 2.99072021 2.06966797 2.54784668 1.40527344 2.09155273 C0.9415332 1.73134033 0.47779297 1.37112793 0 1 C0 0.67 0 0.34 0 0 Z " fill="#F28B5F" transform="translate(316,135)"/>
<path d="M0 0 C13.58389227 1.1915695 26.22452897 4.41532742 39 9 C39 9.33 39 9.66 39 10 C35.7 9.67 32.4 9.34 29 9 C29 8.34 29 7.68 29 7 C27.5459375 7.0309375 27.5459375 7.0309375 26.0625 7.0625 C23 7 23 7 22 6 C20.48530552 5.76807135 18.96245438 5.58784762 17.4375 5.4375 C16.19806641 5.31181641 16.19806641 5.31181641 14.93359375 5.18359375 C14.29550781 5.12300781 13.65742188 5.06242187 13 5 C13 4.34 13 3.68 13 3 C11.453125 3.061875 11.453125 3.061875 9.875 3.125 C6.13170373 3.00424851 3.46265453 2.35127982 0 1 C0 0.67 0 0.34 0 0 Z " fill="#F9C2AA" transform="translate(272,67)"/>
<path d="M0 0 C0.33 0 0.66 0 1 0 C1.08564209 0.81267334 1.17128418 1.62534668 1.25952148 2.46264648 C1.64764956 6.12142841 2.04248266 9.77945574 2.4375 13.4375 C2.57220703 14.71689453 2.70691406 15.99628906 2.84570312 17.31445312 C2.97783203 18.52939453 3.10996094 19.74433594 3.24609375 20.99609375 C3.36654053 22.12200928 3.4869873 23.2479248 3.61108398 24.40795898 C3.72607948 26.92419872 3.72607948 26.92419872 5 28 C5.23527773 30.34987262 5.41386417 32.70556039 5.5625 35.0625 C5.64628906 36.35285156 5.73007812 37.64320313 5.81640625 38.97265625 C5.87699219 39.97167969 5.93757813 40.97070312 6 42 C3.41888703 38.12833055 2.79393922 34.51627087 1.875 30 C1.69614258 29.12311523 1.51728516 28.24623047 1.33300781 27.34277344 C-0.38123156 18.20342866 -0.37709305 9.25972926 0 0 Z " fill="#F19264" transform="translate(45,273)"/>
<path d="M0 0 C3.84783484 3.06077771 7.14732623 5.94042579 10 10 C10 10.66 10 11.32 10 12 C10.66 12 11.32 12 12 12 C13.2890625 13.4609375 13.2890625 13.4609375 14.625 15.375 C15.07101562 16.00148437 15.51703125 16.62796875 15.9765625 17.2734375 C17 19 17 19 17 21 C16.01 20.67 15.02 20.34 14 20 C13.67 19.34 13.34 18.68 13 18 C10.97536745 17.34786708 10.97536745 17.34786708 9 17 C8.7525 15.88625 8.505 14.7725 8.25 13.625 C7.38994661 9.95384802 7.38994661 9.95384802 4.875 8.5625 C4.25625 8.376875 3.6375 8.19125 3 8 C3 7.34 3 6.68 3 6 C2.34 6 1.68 6 1 6 C1 5.34 1 4.68 1 4 C0.34 3.67 -0.32 3.34 -1 3 C-0.67 2.01 -0.34 1.02 0 0 Z " fill="#EF8E61" transform="translate(386,128)"/>
<path d="M0 0 C1.24605975 3.73817924 0.5522163 5.46708435 -0.4375 9.25 C-2.65075727 18.48040476 -2.60413106 26.47639361 2.08984375 34.97265625 C3.00630737 36.35224383 3.99519669 37.68336118 5 39 C4.67 39.66 4.34 40.32 4 41 C2.5 39.625 2.5 39.625 1 38 C1 37.34 1 36.68 1 36 C0.01 35.67 -0.98 35.34 -2 35 C-4.46116823 23.24352676 -5.6010093 11.20201861 0 0 Z " fill="#F6AA7F" transform="translate(101,214)"/>
<path d="M0 0 C1.4540625 0.0309375 1.4540625 0.0309375 2.9375 0.0625 C1.51105389 2.91539222 -0.24563331 3.59283042 -3.0625 5.0625 C-5.39123375 5.74505989 -7.72432791 6.41300775 -10.0625 7.0625 C-11.0525 7.7225 -12.0425 8.3825 -13.0625 9.0625 C-15.75 9.1875 -15.75 9.1875 -18.0625 9.0625 C-18.0625 8.4025 -18.0625 7.7425 -18.0625 7.0625 C-17.0725 7.0625 -16.0825 7.0625 -15.0625 7.0625 C-14.7325 6.0725 -14.4025 5.0825 -14.0625 4.0625 C-11.8125 3.1484375 -11.8125 3.1484375 -9.0625 2.4375 C-5.73172997 1.55749542 -3.30233052 0.0673945 0 0 Z " fill="#ED5E16" transform="translate(179.0625,76.9375)"/>
<path d="M0 0 C0.33 0 0.66 0 1 0 C1.3200444 4.69398446 0.80726988 6.36094646 -2 10 C-2.77086092 12.30843836 -3.43713432 14.62361547 -4.05859375 16.9765625 C-5.26135001 19.56173985 -6.42471303 19.91670529 -9 21 C-10.37086915 22.29470975 -11.71340837 23.62150897 -13 25 C-11.95395294 21.86185883 -10.75059513 19.66746018 -8.75 17 C-4.90580968 11.84763745 -2.5636389 5.85848752 0 0 Z " fill="#F8AE8F" transform="translate(349,312)"/>
<path d="M0 0 C0.66 0.33 1.32 0.66 2 1 C-1.75 4 -1.75 4 -4 4 C-4 4.99 -4 5.98 -4 7 C-4.99 7.495 -4.99 7.495 -6 8 C-6 8.99 -6 9.98 -6 11 C-9.65079826 12.61064629 -13.0507432 13.44894091 -17 14 C-17 13.34 -17 12.68 -17 12 C-15.65478516 10.77905273 -15.65478516 10.77905273 -13.7890625 9.43359375 C-13.12132813 8.94826172 -12.45359375 8.46292969 -11.765625 7.96289062 C-11.05921875 7.45951172 -10.3528125 6.95613281 -9.625 6.4375 C-8.57699219 5.67663086 -8.57699219 5.67663086 -7.5078125 4.90039062 C-2.34615124 1.17307562 -2.34615124 1.17307562 0 0 Z " fill="#F28F5C" transform="translate(136,94)"/>
<path d="M0 0 C2.30350308 3.8057877 2.88936495 7.93377393 3.625 12.25 C3.7590625 12.97574219 3.893125 13.70148438 4.03125 14.44921875 C4.89031932 19.36695229 5.12420955 24.00903441 5 29 C-1.42488074 21.83581791 -0.33485427 9.11547727 0 0 Z " fill="#F59D74" transform="translate(433,213)"/>
<path d="M0 0 C-3.06957098 1.02319033 -5.22440323 1.13371939 -8.4375 1.125 C-9.85869141 1.12886719 -9.85869141 1.12886719 -11.30859375 1.1328125 C-13.70140459 1.01473475 -15.71336153 0.68112635 -18 0 C-18 -0.66 -18 -1.32 -18 -2 C-18.66 -2.33 -19.32 -2.66 -20 -3 C-12.35566478 -5.54811174 -6.63580779 -3.9532472 0 0 Z " fill="#F28852" transform="translate(322,81)"/>
<path d="M0 0 C4.29 0 8.58 0 13 0 C13.33 0.66 13.66 1.32 14 2 C16.24045411 3.06076737 16.24045411 3.06076737 18.875 4 C21.93797509 5.14303444 24.2566841 6.17112273 27 8 C20.3801072 7.47650497 14.68234447 6.15274936 8.4375 3.9375 C7.61958984 3.65583984 6.80167969 3.37417969 5.95898438 3.08398438 C3.96976517 2.39764559 1.9844476 1.7000155 0 1 C0 0.67 0 0.34 0 0 Z " fill="#F08657" transform="translate(171,447)"/>
<path d="M0 0 C3.8075302 3.66240013 6.96220391 7.68902881 10.1953125 11.85546875 C11.82213654 14.07623502 11.82213654 14.07623502 14 15 C13.67 15.66 13.34 16.32 13 17 C11 17 9 17 7 17 C7.33 16.01 7.66 15.02 8 14 C6.33819262 10.59329487 5.19665902 9.13110601 2 7 C1.01 7.66 0.02 8.32 -1 9 C-1.625 5.625 -1.625 5.625 -2 2 C-1.34 1.34 -0.68 0.68 0 0 Z " fill="#F39568" transform="translate(146,335)"/>
<path d="M0 0 C0 0.99 0 1.98 0 3 C-20.05102999 13.83839459 -20.05102999 13.83839459 -27.375 12.59765625 C-27.91125 12.40042969 -28.4475 12.20320313 -29 12 C-27.97261719 11.63648438 -26.94523437 11.27296875 -25.88671875 10.8984375 C-18.24675731 8.14361706 -11.06495719 5.24068475 -4.0390625 1.1015625 C-2 0 -2 0 0 0 Z " fill="#F7B895" transform="translate(308,363)"/>
<path d="M0 0 C5.83321216 0.40746703 11.38550295 0.94368846 17.01953125 2.53515625 C19.98867058 3.23205483 22.97956592 3.39179919 26.01953125 3.55859375 C28.52956586 4.11802947 29.33705311 5.07280402 31 7 C31.556875 7.556875 32.11375 8.11375 32.6875 8.6875 C33.120625 9.120625 33.55375 9.55375 34 10 C33.44054687 9.82984375 32.88109375 9.6596875 32.3046875 9.484375 C29.53875785 8.64837054 26.76993279 7.82264921 24 7 C22.86820312 6.66355469 21.73640625 6.32710938 20.5703125 5.98046875 C13.75722166 3.99021136 6.99363099 2.22469114 0 1 C0 0.67 0 0.34 0 0 Z " fill="#F8AD85" transform="translate(265,117)"/>
<path d="M0 0 C1.4540625 0.0309375 1.4540625 0.0309375 2.9375 0.0625 C2.9375 0.7225 2.9375 1.3825 2.9375 2.0625 C-0.02428773 3.73360042 -2.43321192 4.38932752 -5.8125 4.6875 C-6.61171875 4.76226562 -7.4109375 4.83703125 -8.234375 4.9140625 C-8.83765625 4.96304688 -9.4409375 5.01203125 -10.0625 5.0625 C-10.0625 5.7225 -10.0625 6.3825 -10.0625 7.0625 C-14.5175 7.5575 -14.5175 7.5575 -19.0625 8.0625 C-17.7425 7.7325 -16.4225 7.4025 -15.0625 7.0625 C-14.7325 6.0725 -14.4025 5.0825 -14.0625 4.0625 C-11.8125 3.1484375 -11.8125 3.1484375 -9.0625 2.4375 C-5.73172997 1.55749542 -3.30233052 0.0673945 0 0 Z " fill="#EA5E17" transform="translate(199.0625,116.9375)"/>
<path d="M0 0 C-6.68289927 2.72340707 -12.8036337 5.11881229 -20 6 C-21.051875 6.53625 -22.10375 7.0725 -23.1875 7.625 C-26.30564964 9.14942871 -26.86963495 9.00547057 -30 8 C-6.01079137 -2.00359712 -6.01079137 -2.00359712 0 0 Z " fill="#FABDA1" transform="translate(195,71)"/>
<path d="M0 0 C0.66 0.33 1.32 0.66 2 1 C0 4 0 4 -2.625 5.5 C-3.40875 5.995 -4.1925 6.49 -5 7 C-5 7.99 -5 8.98 -5 10 C-5.7425 10.2475 -6.485 10.495 -7.25 10.75 C-10.20124062 12.09147301 -11.84814974 13.60905526 -14 16 C-13.57798622 11.2171772 -11.42380544 8.19833532 -8 5 C-5.459613 3.09714307 -2.90779088 1.29021185 0 0 Z " fill="#F2996D" transform="translate(373,257)"/>
<path d="M0 0 C2.64 0.33 5.28 0.66 8 1 C8 1.66 8 2.32 8 3 C8.78375 3.20625 9.5675 3.4125 10.375 3.625 C13 5 13 5 14.3125 8.125 C14.6528125 9.548125 14.6528125 9.548125 15 11 C10.92584833 9.59790456 8.01720177 7.65552322 4.6875 4.9375 C3.80449219 4.22464844 2.92148438 3.51179688 2.01171875 2.77734375 C1.34785156 2.19082031 0.68398437 1.60429687 0 1 C0 0.67 0 0.34 0 0 Z " fill="#EE7538" transform="translate(119,417)"/>
<path d="M0 0 C3.91132545 0.80788082 7.50936824 2.36257863 11.1875 3.875 C22.30326572 8.43275387 22.30326572 8.43275387 34 11 C34 11.33 34 11.66 34 12 C24.70480103 12.60620863 16.8189057 9.10763475 8.54296875 5.18359375 C5.99291519 3.95575993 5.99291519 3.95575993 3.23828125 2.97265625 C1 2 1 2 0 0 Z " fill="#F9BFA2" transform="translate(181,367)"/>
<path d="M0 0 C0.99 0.33 1.98 0.66 3 1 C3 8.59 3 16.18 3 24 C2.01 24.33 1.02 24.66 0 25 C0.08378906 24.11699219 0.16757812 23.23398438 0.25390625 22.32421875 C0.89891577 14.72290404 1.00363565 7.56586878 0 0 Z " fill="#F48B5D" transform="translate(383,220)"/>
<path d="M0 0 C0.33 0.66 0.66 1.32 1 2 C1.66 2 2.32 2 3 2 C3 2.66 3 3.32 3 4 C0.98312422 5.40941913 -1.01293333 6.68633007 -3.125 7.9375 C-3.97964844 8.45860352 -3.97964844 8.45860352 -4.8515625 8.99023438 C-8.483178 11.18158418 -12.18441552 13.15019536 -16 15 C-16 14.34 -16 13.68 -16 13 C-15.34 13 -14.68 13 -14 13 C-14.33 12.01 -14.66 11.02 -15 10 C-12.11604263 8.55802132 -9.17569521 8.41166419 -6 8 C-6 7.34 -6 6.68 -6 6 C-5.01 6 -4.02 6 -3 6 C-3 5.01 -3 4.02 -3 3 C-2.34 2.67 -1.68 2.34 -1 2 C-0.67 1.34 -0.34 0.68 0 0 Z " fill="#F09665" transform="translate(354,420)"/>
<path d="M0 0 C3.17562852 2.66405311 4.69077816 6.08347075 6.4375 9.75 C8.80201727 14.603976 11.23767371 19.35929183 14 24 C12.68 23.34 11.36 22.68 10 22 C10 21.01 10 20.02 10 19 C9.01 18.67 8.02 18.34 7 18 C3.21344168 12.79348231 0.98929229 6.33147063 0 0 Z " fill="#F7AE8F" transform="translate(132,311)"/>
<path d="M0 0 C3.92491136 4.52874388 7.37459686 9.60598991 10 15 C9.67 15.66 9.34 16.32 9 17 C8.01 16.67 7.02 16.34 6 16 C6 15.01 6 14.02 6 13 C5.34 13 4.68 13 4 13 C4 11.35 4 9.7 4 8 C3.34 8 2.68 8 2 8 C2 7.34 2 6.68 2 6 C0.68 6.33 -0.64 6.66 -2 7 C-2 6.34 -2 5.68 -2 5 C-1.34 5 -0.68 5 0 5 C0 3.35 0 1.7 0 0 Z " fill="#F4956A" transform="translate(404,149)"/>
<path d="M0 0 C1.32 0 2.64 0 4 0 C4 0.66 4 1.32 4 2 C6.64 1.67 9.28 1.34 12 1 C11.67 2.65 11.34 4.3 11 6 C11.66 6.33 12.32 6.66 13 7 C11.02 7 9.04 7 7 7 C6.67 6.01 6.34 5.02 6 4 C4.35 3.67 2.7 3.34 1 3 C0.67 2.01 0.34 1.02 0 0 Z " fill="#EC611A" transform="translate(132,424)"/>
<path d="M0 0 C1.15628906 0.74056641 1.15628906 0.74056641 2.3359375 1.49609375 C3.33882813 2.13675781 4.34171875 2.77742188 5.375 3.4375 C6.37273437 4.07558594 7.37046875 4.71367187 8.3984375 5.37109375 C10.85830521 6.96899211 10.85830521 6.96899211 13 8 C13 8.66 13 9.32 13 10 C13.99 10.33 14.98 10.66 16 11 C16.33 12.98 16.66 14.96 17 17 C16.34 17 15.68 17 15 17 C15 15.35 15 13.7 15 12 C13.68 11.67 12.36 11.34 11 11 C10.67 11.66 10.34 12.32 10 13 C10 11.35 10 9.7 10 8 C9.46375 7.7525 8.9275 7.505 8.375 7.25 C5.4176018 5.69347463 2.70275949 3.96564327 0 2 C0 1.34 0 0.68 0 0 Z " fill="#F49E70" transform="translate(106,255)"/>
<path d="M0 0 C0.66 0 1.32 0 2 0 C1.67 2.31 1.34 4.62 1 7 C0.01 7 -0.98 7 -2 7 C-2 7.66 -2 8.32 -2 9 C-2.66 9 -3.32 9 -4 9 C-4 9.66 -4 10.32 -4 11 C-5.98 11.66 -7.96 12.32 -10 13 C-7.35375444 8.78560893 -4.58822863 5.49124947 -1 2 C-0.67 1.34 -0.34 0.68 0 0 Z " fill="#E9621F" transform="translate(381,250)"/>
<path d="M0 0 C1.01428828 3.04286484 1.3858223 4.83625717 1 8 C-0.875 10.0625 -0.875 10.0625 -3 12 C-4.23512079 14.13309192 -4.23512079 14.13309192 -5 16 C-5.31364748 10.04069781 -4.80867326 6.29326883 -2 1 C-1.34 0.67 -0.68 0.34 0 0 Z " fill="#EB621C" transform="translate(62,184)"/>
<path d="M0 0 C-0.97839844 0.38671875 -1.95679688 0.7734375 -2.96484375 1.171875 C-4.28919136 1.69759216 -5.61340102 2.22365692 -6.9375 2.75 C-7.62030029 3.02078369 -8.30310059 3.29156738 -9.0065918 3.57055664 C-13.53357521 5.37802961 -17.97701016 7.30311922 -22.36328125 9.43359375 C-23.17345703 9.71396484 -23.17345703 9.71396484 -24 10 C-24.66 9.67 -25.32 9.34 -26 9 C-8.04523999 -2.91687611 -8.04523999 -2.91687611 0 0 Z " fill="#F8B591" transform="translate(197,123)"/>
<path d="M0 0 C0.33 0.66 0.66 1.32 1 2 C1.66 2.33 2.32 2.66 3 3 C-0.3 6.3 -3.6 9.6 -7 13 C-7.66 12.67 -8.32 12.34 -9 12 C-8.34 11.34 -7.68 10.68 -7 10 C-6.5359375 8.7315625 -6.5359375 8.7315625 -6.0625 7.4375 C-5.711875 6.633125 -5.36125 5.82875 -5 5 C-4.01 4.67 -3.02 4.34 -2 4 C-0.79117904 1.99983534 -0.79117904 1.99983534 0 0 Z " fill="#EE763F" transform="translate(382,396)"/>
<path d="M0 0 C0.98235258 3.18341324 1.02156168 5.75678515 0.6875 9.0625 C0.60886719 9.91972656 0.53023437 10.77695313 0.44921875 11.66015625 C0 14 0 14 -2 17 C-2.38499891 18.65549531 -2.72793135 20.3222433 -3 22 C-3.66 22 -4.32 22 -5 22 C-4.14943419 14.51502085 -2.38160268 7.14480803 0 0 Z " fill="#F5A27E" transform="translate(52,202)"/>
<path d="M0 0 C5.50808397 0.59015185 10.64878069 1.56663769 16 3 C16.33 4.32 16.66 5.64 17 7 C12.25 6.25 12.25 6.25 10 4 C8.68 4 7.36 4 6 4 C6 3.34 6 2.68 6 2 C3.69 2 1.38 2 -1 2 C-0.67 1.34 -0.34 0.68 0 0 Z " fill="#EC5E16" transform="translate(287,119)"/>
<path d="M0 0 C-0.33 0.66 -0.66 1.32 -1 2 C-1.66 2 -2.32 2 -3 2 C-3 2.66 -3 3.32 -3 4 C-7.1196377 5.29243536 -10.66831683 6.26252625 -15 6 C-15 5.34 -15 4.68 -15 4 C-5.77448747 -0.59225513 -5.77448747 -0.59225513 0 0 Z " fill="#EB5E19" transform="translate(322,440)"/>
<path d="M0 0 C0 1.32 0 2.64 0 4 C-1.6396875 4.2165625 -1.6396875 4.2165625 -3.3125 4.4375 C-6.93122987 4.88288104 -6.93122987 4.88288104 -10 6 C-12 6 -14 6 -16 6 C-17.67453799 6.291224 -19.34550895 6.61070799 -21 7 C-18.0560242 4.50475954 -15.85996083 3.54017868 -12.0625 2.9375 C-8.03857817 2.23227659 -3.96362099 0 0 0 Z " fill="#ED6D2C" transform="translate(192,72)"/>
<path d="M0 0 C1.9375 0.375 1.9375 0.375 4 1 C4.33 1.66 4.66 2.32 5 3 C5.99 3.33 6.98 3.66 8 4 C8 4.66 8 5.32 8 6 C8.66 6 9.32 6 10 6 C10.33 7.98 10.66 9.96 11 12 C6.87679413 8.62962667 3.1196024 5.36744335 0 1 C0 0.67 0 0.34 0 0 Z " fill="#EA7E4C" transform="translate(90,389)"/>
<path d="M0 0 C0.99 0 1.98 0 3 0 C2.49516338 4.34159496 1.68099266 7.49408652 -1 11 C-1.99 11 -2.98 11 -4 11 C-4 9.68 -4 8.36 -4 7 C-3.34 7 -2.68 7 -2 7 C-1.855625 6.21625 -1.71125 5.4325 -1.5625 4.625 C-1 2 -1 2 0 0 Z " fill="#EB611C" transform="translate(412,352)"/>
<path d="M0 0 C0.99 0.495 0.99 0.495 2 1 C3.47180796 5.82425944 4.25376143 9.92477148 4 15 C3.67 14.34 3.34 13.68 3 13 C2.34 13 1.68 13 1 13 C-0.32229189 10.35541621 -0.09677194 8.32238699 -0.0625 5.375 C-0.05347656 4.37210937 -0.04445313 3.36921875 -0.03515625 2.3359375 C-0.02355469 1.56507813 -0.01195313 0.79421875 0 0 Z " fill="#E95F1B" transform="translate(124,291)"/>
<path d="M0 0 C0.33 0 0.66 0 1 0 C1 1.98 1 3.96 1 6 C0.34 6 -0.32 6 -1 6 C-1 7.98 -1 9.96 -1 12 C-1.99 11.67 -2.98 11.34 -4 11 C-4 11.66 -4 12.32 -4 13 C-4.99 13.33 -5.98 13.66 -7 14 C-5.23570801 9.02790438 -2.6060834 4.56561939 0 0 Z " fill="#F39164" transform="translate(69,164)"/>
<path d="M0 0 C0.99 0 1.98 0 3 0 C2.38722388 2.96175123 1.74627478 4.38058783 0 7 C-0.66 7 -1.32 7 -2 7 C-2.66 8.32 -3.32 9.64 -4 11 C-4.33 11 -4.66 11 -5 11 C-5 9.35 -5 7.7 -5 6 C-4.34 6 -3.68 6 -3 6 C-3 4.68 -3 3.36 -3 2 C-2.34 2 -1.68 2 -1 2 C-0.67 1.34 -0.34 0.68 0 0 Z " fill="#EC743E" transform="translate(396,380)"/>
<path d="M0 0 C0.66 0 1.32 0 2 0 C2 0.66 2 1.32 2 2 C2.99 1.67 3.98 1.34 5 1 C5 2.32 5 3.64 5 5 C5.66 5 6.32 5 7 5 C7.66 6.98 8.32 8.96 9 11 C9.66 11 10.32 11 11 11 C10.67 11.99 10.34 12.98 10 14 C8.51551984 12.23361856 7.03758035 10.46173862 5.5625 8.6875 C4.73878906 7.70136719 3.91507812 6.71523438 3.06640625 5.69921875 C1 3 1 3 0 0 Z " fill="#EF8A5C" transform="translate(79,375)"/>
<path d="M0 0 C0.33 0.66 0.66 1.32 1 2 C0.34 2 -0.32 2 -1 2 C-1 2.66 -1 3.32 -1 4 C-1.66 4 -2.32 4 -3 4 C-3 4.66 -3 5.32 -3 6 C-4.62626404 7.38232443 -6.2925002 8.71937515 -8 10 C-8 8.68 -8 7.36 -8 6 C-8.66 5.67 -9.32 5.34 -10 5 C-9.34 4.67 -8.68 4.34 -8 4 C-7.34 4.33 -6.68 4.66 -6 5 C-5.67 3.68 -5.34 2.36 -5 1 C-3.35 0.67 -1.7 0.34 0 0 Z " fill="#F18C58" transform="translate(138,156)"/>
<path d="M0 0 C13.38440111 1.29526462 13.38440111 1.29526462 19 3 C19.33 3.66 19.66 4.32 20 5 C17.69 5 15.38 5 13 5 C13 4.34 13 3.68 13 3 C11.453125 3.061875 11.453125 3.061875 9.875 3.125 C6.13170373 3.00424851 3.46265453 2.35127982 0 1 C0 0.67 0 0.34 0 0 Z " fill="#F8B28D" transform="translate(272,67)"/>
<path d="M0 0 C0.66 0.66 1.32 1.32 2 2 C2.99 1.67 3.98 1.34 5 1 C4.67 2.98 4.34 4.96 4 7 C3.34 7 2.68 7 2 7 C1.67 8.65 1.34 10.3 1 12 C0.67 12 0.34 12 0 12 C-0.19401633 10.18818595 -0.38004375 8.37551468 -0.5625 6.5625 C-0.66691406 5.55316406 -0.77132812 4.54382813 -0.87890625 3.50390625 C-0.91886719 2.67761719 -0.95882812 1.85132813 -1 1 C-0.67 0.67 -0.34 0.34 0 0 Z " fill="#F0834E" transform="translate(99,207)"/>
<path d="M0 0 C0 3.97301335 -1.71216093 6.74642751 -3.5 10.1875 C-4.00080078 11.16879883 -4.00080078 11.16879883 -4.51171875 12.16992188 C-5.33576924 13.7827064 -6.16718155 15.39172559 -7 17 C-8.31538327 12.84228506 -7.34433068 10.1120703 -6 6 C-5.01 6 -4.02 6 -3 6 C-2.690625 5.195625 -2.38125 4.39125 -2.0625 3.5625 C-1 1 -1 1 0 0 Z " fill="#F29365" transform="translate(114,186)"/>
<path d="M0 0 C1.32 0 2.64 0 4 0 C4 0.66 4 1.32 4 2 C5.32 2 6.64 2 8 2 C8 2.66 8 3.32 8 4 C8.99 4.33 9.98 4.66 11 5 C11 5.66 11 6.32 11 7 C7.21472479 6.48847632 5.55891312 5.79154158 3 3 C2.01 2.67 1.02 2.34 0 2 C0 1.34 0 0.68 0 0 Z " fill="#EC5F17" transform="translate(309,128)"/>
<path d="M0 0 C1.65 0 3.3 0 5 0 C3.74693917 2.50612166 2.66521628 2.88384342 0.1875 4.125 C-0.49957031 4.47820312 -1.18664062 4.83140625 -1.89453125 5.1953125 C-4 6 -4 6 -8 6 C-8 5.01 -8 4.02 -8 3 C-5.36 2.67 -2.72 2.34 0 2 C0 1.34 0 0.68 0 0 Z " fill="#EC5E16" transform="translate(155,86)"/>
<path d="M0 0 C2.80500965 4.20751447 3.12829139 7.24985414 3.0625 12.25 C3.05347656 13.14203125 3.04445313 14.0340625 3.03515625 14.953125 C3.02355469 15.62859375 3.01195313 16.3040625 3 17 C-0.57231298 11.64153053 -0.12223971 6.234225 0 0 Z " fill="#F8BD9E" transform="translate(123,269)"/>
<path d="M0 0 C0.66 0 1.32 0 2 0 C2.53394179 1.4117783 3.05165104 2.82970244 3.5625 4.25 C3.85253906 5.03890625 4.14257812 5.8278125 4.44140625 6.640625 C5.04522837 9.19103452 4.8473932 10.55322229 4 13 C3.67 11.35 3.34 9.7 3 8 C2.01 8 1.02 8 0 8 C0 5.36 0 2.72 0 0 Z " fill="#F39669" transform="translate(428,200)"/>
<path d="M0 0 C4.17882671 2.56428003 7.12505529 5.01930733 10 9 C7.03 8.505 7.03 8.505 4 8 C4 7.34 4 6.68 4 6 C3.01 5.67 2.02 5.34 1 5 C1 4.34 1 3.68 1 3 C0.67 2.01 0.34 1.02 0 0 Z " fill="#EB8550" transform="translate(367,110)"/>
<path d="M0 0 C2.03833424 1.2739589 4.03852126 2.61061923 6 4 C6 4.66 6 5.32 6 6 C6.78375 6.268125 7.5675 6.53625 8.375 6.8125 C11 8 11 8 13 11 C11.68 10.67 10.36 10.34 9 10 C9 9.34 9 8.68 9 8 C6.34771188 6.92474806 3.71631546 5.90543849 1 5 C0.67 3.35 0.34 1.7 0 0 Z " fill="#F5A87F" transform="translate(161,352)"/>
<path d="M0 0 C0.86325845 2.41712366 1.1132654 3.64990694 0.3125 6.125 C-1.25369056 8.36241509 -2.55342913 8.84867253 -5 10 C-6.37086915 11.29470975 -7.71340837 12.62150897 -9 14 C-7.59347226 9.52468445 -5.3202902 7.23728294 -2 4 C-0.70480005 1.83379456 -0.70480005 1.83379456 0 0 Z " fill="#F39B6F" transform="translate(345,323)"/>
<path d="M0 0 C3.7758544 0.52442422 6.22372155 1.32654667 9 4 C9 4.99 9 5.98 9 7 C7.68 6.67 6.36 6.34 5 6 C5 5.34 5 4.68 5 4 C3.68 4 2.36 4 1 4 C0.67 2.68 0.34 1.36 0 0 Z " fill="#E9601C" transform="translate(107,259)"/>
<path d="M0 0 C1.32 0 2.64 0 4 0 C4 0.66 4 1.32 4 2 C4.99 1.67 5.98 1.34 7 1 C7.73080266 2.97746603 8.39421747 4.98072489 9 7 C8.67 7.66 8.34 8.32 8 9 C6.62437146 7.71034824 5.29233607 6.37310707 4 5 C4 4.34 4 3.68 4 3 C3.34 3 2.68 3 2 3 C2 2.34 2 1.68 2 1 C1.34 0.67 0.68 0.34 0 0 Z " fill="#EF8C5A" transform="translate(346,159)"/>
<path d="M0 0 C4.03384128 2.07143201 5.92856799 3.96615872 8 8 C7.01 8.33 6.02 8.66 5 9 C1.7457985 6.16569547 0.4793247 4.31392226 0 0 Z " fill="#EC601C" transform="translate(147,341)"/>
<path d="M0 0 C0.90492188 0.02320312 1.80984375 0.04640625 2.7421875 0.0703125 C4.10730469 0.09738281 4.10730469 0.09738281 5.5 0.125 C6.19867188 0.14820312 6.89734375 0.17140625 7.6171875 0.1953125 C4.03342974 3.77907026 -1.51781391 4.11919011 -6.4453125 4.3203125 C-7.0846875 4.2790625 -7.7240625 4.2378125 -8.3828125 4.1953125 C-7.7640625 3.9065625 -7.1453125 3.6178125 -6.5078125 3.3203125 C-0.27936422 0.02289871 -0.27936422 0.02289871 0 0 Z " fill="#F8B190" transform="translate(208.3828125,116.8046875)"/>
<path d="M0 0 C0.99 0 1.98 0 3 0 C2.49890042 4.38462134 1.01704885 6.8000997 -2 10 C-2.66 10 -3.32 10 -4 10 C-4 9.01 -4 8.02 -4 7 C-3.34 6.67 -2.68 6.34 -2 6 C-1.27306096 4.02111039 -0.60183749 2.02045442 0 0 Z " fill="#EB5D1A" transform="translate(76,155)"/>
<path d="M0 0 C10.55808656 0.41002278 10.55808656 0.41002278 15 5 C9.7415998 4.32584613 4.97361654 2.75734451 0 1 C0 0.67 0 0.34 0 0 Z " fill="#F49C7B" transform="translate(171,447)"/>
<path d="M0 0 C0 0.99 0 1.98 0 3 C-0.99 3 -1.98 3 -3 3 C-3 3.99 -3 4.98 -3 6 C-4.32 6.33 -5.64 6.66 -7 7 C-7 7.66 -7 8.32 -7 9 C-7.66 8.67 -8.32 8.34 -9 8 C-8.21366078 6.85050412 -7.42073742 5.70551011 -6.625 4.5625 C-6.18414062 3.92441406 -5.74328125 3.28632813 -5.2890625 2.62890625 C-3.63708041 0.54140161 -2.66927652 0 0 0 Z " fill="#E9692C" transform="translate(344,331)"/>
<path d="M0 0 C0.33 0.66 0.66 1.32 1 2 C0.06421005 4.35981813 -0.93347808 6.69631264 -2 9 C-2.66 9 -3.32 9 -4 9 C-4 9.66 -4 10.32 -4 11 C-4.66 11 -5.32 11 -6 11 C-4.54955729 6.89041233 -2.48889248 3.56741255 0 0 Z " fill="#F59A6E" transform="translate(76,153)"/>
<path d="M0 0 C2.64 0 5.28 0 8 0 C8.33 1.32 8.66 2.64 9 4 C6.75 4.25 6.75 4.25 4 4 C1.6875 2 1.6875 2 0 0 Z " fill="#EC854A" transform="translate(316,135)"/>
<path d="M0 0 C4.6875 3.61328125 4.6875 3.61328125 6 5 C6 5.99 6 6.98 6 8 C5.01 8 4.02 8 3 8 C3 7.34 3 6.68 3 6 C2.34 6 1.68 6 1 6 C1 5.34 1 4.68 1 4 C0.34 3.67 -0.32 3.34 -1 3 C-0.67 2.01 -0.34 1.02 0 0 Z " fill="#EE7947" transform="translate(386,128)"/>
<path d="M0 0 C0 0.66 0 1.32 0 2 C-2.75078884 2.91692961 -4.35948913 3.10886083 -7.1875 3.0625 C-9.0746875 3.0315625 -9.0746875 3.0315625 -11 3 C-11.33 2.34 -11.66 1.68 -12 1 C-7.95858806 0.36605303 -4.0934693 -0.12404452 0 0 Z " fill="#EB5C13" transform="translate(227,112)"/>
<path d="M0 0 C2.64 0.33 5.28 0.66 8 1 C8.33 2.98 8.66 4.96 9 7 C5.18315774 5.44499019 2.80804268 2.96404505 0 0 Z " fill="#EE8147" transform="translate(119,417)"/>
<path d="M0 0 C1.98 0.99 1.98 0.99 4 2 C4 2.66 4 3.32 4 4 C4.66 4.33 5.32 4.66 6 5 C6 5.99 6 6.98 6 8 C4.68 7.67 3.36 7.34 2 7 C2 6.01 2 5.02 2 4 C1.34 4 0.68 4 0 4 C0 2.68 0 1.36 0 0 Z " fill="#F35F16" transform="translate(84,376)"/>
<path d="M0 0 C-0.33 0.99 -0.66 1.98 -1 3 C-5.62 3.33 -10.24 3.66 -15 4 C-12.3851183 2.25674553 -10.9946567 1.58412043 -8.0625 0.875 C-7.39347656 0.70742188 -6.72445313 0.53984375 -6.03515625 0.3671875 C-4 0 -4 0 0 0 Z " fill="#FABA9E" transform="translate(279,376)"/>
<path d="M0 0 C0.33 0 0.66 0 1 0 C1.19622241 4.21878192 0.80230168 7.17010894 -1 11 C-1.66 11 -2.32 11 -3 11 C-3.32434322 6.35108046 -2.776422 3.77593392 0 0 Z " fill="#E95C14" transform="translate(427,320)"/>
<path d="M0 0 C0.33 0.99 0.66 1.98 1 3 C0.34 3.66 -0.32 4.32 -1 5 C-1.309375 5.845625 -1.61875 6.69125 -1.9375 7.5625 C-2.288125 8.366875 -2.63875 9.17125 -3 10 C-3.99 10.33 -4.98 10.66 -6 11 C-5.34 8.69 -4.68 6.38 -4 4 C-3.34 4 -2.68 4 -2 4 C-1.34 2.68 -0.68 1.36 0 0 Z " fill="#ED5E17" transform="translate(350,319)"/>
<path d="M0 0 C0.99 0.33 1.98 0.66 3 1 C2.1875 2.9375 2.1875 2.9375 1 5 C0.01 5.33 -0.98 5.66 -2 6 C-2 6.66 -2 7.32 -2 8 C-2.66 7.67 -3.32 7.34 -4 7 C-3.34 5.35 -2.68 3.7 -2 2 C-1.34 2 -0.68 2 0 2 C0 1.34 0 0.68 0 0 Z " fill="#EA7B42" transform="translate(368,409)"/>
<path d="M0 0 C1.32 0.33 2.64 0.66 4 1 C1.88229834 3.32947183 -0.03335588 4.88750845 -3 6 C-3.99 5.67 -4.98 5.34 -6 5 C-4.6875 3.5 -4.6875 3.5 -3 2 C-2.01 2 -1.02 2 0 2 C0 1.34 0 0.68 0 0 Z " fill="#EA5E18" transform="translate(308,364)"/>
<path d="M0 0 C2 1.1875 2 1.1875 4 3 C4.25 5.6875 4.25 5.6875 4 8 C3.01 8.33 2.02 8.66 1 9 C0.67 6.03 0.34 3.06 0 0 Z " fill="#EC6019" transform="translate(131,315)"/>
<path d="M0 0 C0.66 0 1.32 0 2 0 C3.85776765 3.13498292 4.20140476 5.37471432 4 9 C3.01 8.67 2.02 8.34 1 8 C0.67 5.36 0.34 2.72 0 0 Z " fill="#E95F1F" transform="translate(66,347)"/>
<path d="M0 0 C1.5 1 1.5 1 3 3 C3.27345479 5.71846235 3.13491285 8.25677199 3 11 C0.39665076 8.28817788 0.00543309 7.10866187 -0.1875 3.25 C-0.125625 2.1775 -0.06375 1.105 0 0 Z " fill="#EF8353" transform="translate(435,231)"/>
<path d="M0 0 C0 0.66 0 1.32 0 2 C-0.66 2 -1.32 2 -2 2 C-2 2.66 -2 3.32 -2 4 C-2.66 4.66 -3.32 5.32 -4 6 C-5.32 6 -6.64 6 -8 6 C-6.24081631 1.94034532 -4.71412298 0 0 0 Z " fill="#EA5D1A" transform="translate(125,106)"/>
<path d="M0 0 C4.455 0.99 4.455 0.99 9 2 C9 2.66 9 3.32 9 4 C10.65 4 12.3 4 14 4 C14 4.33 14 4.66 14 5 C11.36 5 8.72 5 6 5 C6 4.34 6 3.68 6 3 C4.35 3 2.7 3 1 3 C0.67 2.01 0.34 1.02 0 0 Z " fill="#EF7138" transform="translate(292,72)"/>
<path d="M0 0 C2 0 2 0 3.5 1 C5.80070868 4.06761157 6.20423508 7.26602613 7 11 C3.18699218 7.7129243 1.77027754 4.60272162 0 0 Z " fill="#F39569" transform="translate(72,364)"/>
<path d="M0 0 C1.32 0 2.64 0 4 0 C4 0.66 4 1.32 4 2 C4.99 2.33 5.98 2.66 7 3 C6.360625 3.12375 5.72125 3.2475 5.0625 3.375 C4.381875 3.58125 3.70125 3.7875 3 4 C2.67 4.66 2.34 5.32 2 6 C2 5.01 2 4.02 2 3 C1.34 3 0.68 3 0 3 C0 2.01 0 1.02 0 0 Z " fill="#F0804E" transform="translate(360,106)"/>
<path d="M0 0 C2.88575819 0.39803561 3.82189513 0.79009069 5.75 3.0625 C6.1625 3.701875 6.575 4.34125 7 5 C6.01 5.33 5.02 5.66 4 6 C1.8125 4.75 1.8125 4.75 0 3 C0 2.01 0 1.02 0 0 Z " fill="#ED6119" transform="translate(118,413)"/>
<path d="M0 0 C0.33 2.31 0.66 4.62 1 7 C-0.9375 6.25 -0.9375 6.25 -3 5 C-3.75 2.875 -3.75 2.875 -4 1 C-1 0 -1 0 0 0 Z " fill="#EB7546" transform="translate(118,410)"/>
<path d="M0 0 C1.98 0.99 3.96 1.98 6 3 C6 3.66 6 4.32 6 5 C5.01 5 4.02 5 3 5 C3 5.66 3 6.32 3 7 C2.01 6.67 1.02 6.34 0 6 C0.66 5.67 1.32 5.34 2 5 C2 4.01 2 3.02 2 2 C1.34 2 0.68 2 0 2 C0 1.34 0 0.68 0 0 Z " fill="#F38853" transform="translate(175,363)"/>
<path d="M0 0 C0.33 0 0.66 0 1 0 C0.91253716 1.43861294 0.80434652 2.87597508 0.6875 4.3125 C0.62949219 5.11300781 0.57148438 5.91351563 0.51171875 6.73828125 C-0.08206694 9.36272334 -0.95780294 10.30820672 -3 12 C-2.40075776 7.80530429 -1.42500059 3.99000166 0 0 Z " fill="#F8BC93" transform="translate(353,300)"/>
<path d="M0 0 C1.9375 0.75 1.9375 0.75 4 2 C4.75 4.125 4.75 4.125 5 6 C4.01 6 3.02 6 2 6 C0 3 0 3 0 0 Z " fill="#EE5E16" transform="translate(390,136)"/>
<path d="M0 0 C0.66 0.99 1.32 1.98 2 3 C1.67 3.99 1.34 4.98 1 6 C0.34 5.67 -0.32 5.34 -1 5 C-1 6.98 -1 8.96 -1 11 C-1.99 11.495 -1.99 11.495 -3 12 C-2.14285714 3.42857143 -2.14285714 3.42857143 0 0 Z " fill="#EC6D31" transform="translate(356,296)"/>
<path d="M0 0 C0.33 0 0.66 0 1 0 C1 2.31 1 4.62 1 7 C0.01 7 -0.98 7 -2 7 C-2.125 4.625 -2.125 4.625 -2 2 C-1.34 1.34 -0.68 0.68 0 0 Z " fill="#F05D18" transform="translate(359,292)"/>
<path d="M0 0 C2 2 2 2 2.125 5.125 C2.08375 6.07375 2.0425 7.0225 2 8 C1.34 8 0.68 8 0 8 C-0.33 8.66 -0.66 9.32 -1 10 C-0.67 6.7 -0.34 3.4 0 0 Z " fill="#EA5C16" transform="translate(122,280)"/>
<path d="M0 0 C-0.33 0.99 -0.66 1.98 -1 3 C-1.66 3 -2.32 3 -3 3 C-3 4.65 -3 6.3 -3 8 C-3.99 8.495 -3.99 8.495 -5 9 C-5.36666667 3.5 -5.36666667 3.5 -3.625 1.125 C-2 0 -2 0 0 0 Z " fill="#EC5C14" transform="translate(366,267)"/>
<path d="M0 0 C4.8 2.46153846 4.8 2.46153846 5.8125 5.1875 C5.874375 5.785625 5.93625 6.38375 6 7 C4.68 6.67 3.36 6.34 2 6 C2 5.01 2 4.02 2 3 C1.34 3 0.68 3 0 3 C0 2.01 0 1.02 0 0 Z " fill="#EF8152" transform="translate(408,159)"/>
<path d="M0 0 C5.28798182 0.41474367 8.11690718 1.35224614 12 5 C7.61110675 4.33501617 4.0188515 2.81242323 0 1 C0 0.67 0 0.34 0 0 Z " fill="#F6B597" transform="translate(299,127)"/>
<path d="M0 0 C0.99 0 1.98 0 3 0 C3.33 2.97 3.66 5.94 4 9 C1.18167487 7.59083743 0.97406539 5.92219617 0 3 C0 2.01 0 1.02 0 0 Z " fill="#F2966B" transform="translate(56,331)"/>
<path d="M0 0 C2.50298434 2.93828597 3.46930939 5.17902761 4 9 C2.68 8.67 1.36 8.34 0 8 C0 5.36 0 2.72 0 0 Z " fill="#ED6C34" transform="translate(130,309)"/>
<path d="M0 0 C2 2 2 2 2.125 4.625 C2.08375 5.40875 2.0425 6.1925 2 7 C1.01 7 0.02 7 -1 7 C-1.04254356 5.00045254 -1.04080783 2.99958364 -1 1 C-0.67 0.67 -0.34 0.34 0 0 Z " fill="#E8601D" transform="translate(384,213)"/>
<path d="M0 0 C0.99 0.33 1.98 0.66 3 1 C3.33 2.98 3.66 4.96 4 7 C3.01 7 2.02 7 1 7 C0.67 4.69 0.34 2.38 0 0 Z " fill="#EB5F1C" transform="translate(373,189)"/>
<path d="M0 0 C1.32 0.33 2.64 0.66 4 1 C5.3125 3.375 5.3125 3.375 6 6 C5.67 6.99 5.34 7.98 5 9 C3.35 6.03 1.7 3.06 0 0 Z " fill="#EC8859" transform="translate(362,177)"/>
<path d="M0 0 C0.66 0 1.32 0 2 0 C2 0.66 2 1.32 2 2 C2.66 2 3.32 2 4 2 C4 3.65 4 5.3 4 7 C3.34 7 2.68 7 2 7 C0.5393715 4.35261084 0 3.10551666 0 0 Z " fill="#F05C14" transform="translate(404,155)"/>
<path d="M0 0 C0.33 0.66 0.66 1.32 1 2 C0.34 2 -0.32 2 -1 2 C-1.28875 2.639375 -1.5775 3.27875 -1.875 3.9375 C-3 6 -3 6 -5 7 C-4.75 4.625 -4.75 4.625 -4 2 C-1.9375 0.6875 -1.9375 0.6875 0 0 Z " fill="#E8611F" transform="translate(102,125)"/>
<path d="M0 0 C0 1.32 0 2.64 0 4 C-1.65 4 -3.3 4 -5 4 C-5 3.01 -5 2.02 -5 1 C-2 0 -2 0 0 0 Z " fill="#EC5F19" transform="translate(160,436)"/>
<path d="M0 0 C1.67542976 0.28604898 3.34385343 0.61781233 5 1 C2.63707344 3.52588702 1.33537489 4.88820837 -2 6 C-2 5.34 -2 4.68 -2 4 C-1.34 4 -0.68 4 0 4 C-0.33 3.01 -0.66 2.02 -1 1 C-0.67 0.67 -0.34 0.34 0 0 Z " fill="#F28755" transform="translate(340,429)"/>
<path d="M0 0 C0 0.66 0 1.32 0 2 C-2.3125 2.625 -2.3125 2.625 -5 3 C-5.99 2.34 -6.98 1.68 -8 1 C-3.375 -1.125 -3.375 -1.125 0 0 Z " fill="#ED5D1A" transform="translate(301,372)"/>
<path d="M0 0 C2.4375 0.75 2.4375 0.75 5 2 C5.8125 4.125 5.8125 4.125 6 6 C3.5625 5.25 3.5625 5.25 1 4 C0.1875 1.875 0.1875 1.875 0 0 Z " fill="#E46526" transform="translate(156,350)"/>
<path d="M0 0 C0.33 0 0.66 0 1 0 C0.67 2.97 0.34 5.94 0 9 C-0.66 9 -1.32 9 -2 9 C-2 7.02 -2 5.04 -2 3 C-1.34 3 -0.68 3 0 3 C0 2.01 0 1.02 0 0 Z " fill="#EA5E15" transform="translate(422,333)"/>
<path d="M0 0 C0.33 0 0.66 0 1 0 C1.33 2.97 1.66 5.94 2 9 C1.01 9.33 0.02 9.66 -1 10 C-0.67 6.7 -0.34 3.4 0 0 Z " fill="#F89C75" transform="translate(384,235)"/>
<path d="M0 0 C0.99 0 1.98 0 3 0 C3 2.31 3 4.62 3 7 C1.68 5.68 0.36 4.36 -1 3 C-0.67 2.01 -0.34 1.02 0 0 Z " fill="#F07B45" transform="translate(356,166)"/>
<path d="M0 0 C0.66 0 1.32 0 2 0 C1.67 1.98 1.34 3.96 1 6 C0.01 6 -0.98 6 -2 6 C-1.125 1.125 -1.125 1.125 0 0 Z " fill="#EA601A" transform="translate(81,148)"/>
<path d="M0 0 C0.99 0.33 1.98 0.66 3 1 C2.67 1.99 2.34 2.98 2 4 C0.35 4.33 -1.3 4.66 -3 5 C-3 3 -3 3 -1.5 1.375 C-1.005 0.92125 -0.51 0.4675 0 0 Z " fill="#EB5B1A" transform="translate(166,130)"/>
</svg>
